<?xml version="1.0" encoding="UTF-8" ?>
<!DOCTYPE svg PUBLIC "-//W3C//DTD SVG 1.1//EN" "http://www.w3.org/Graphics/SVG/1.1/DTD/svg11.dtd">
<svg width="200pt" height="200pt" viewBox="0 0 200 200" version="1.1" xmlns="http://www.w3.org/2000/svg">
<path fill="#000000" d=" M 7.99 18.93 C 7.53 13.36 12.35 7.98 17.98 8.02 C 25.32 7.95 32.66 8.03 40.00 8.00 C 39.99 20.02 40.01 32.04 40.00 44.06 C 40.14 47.07 36.94 49.02 37.04 52.08 C 36.94 64.05 37.03 76.04 37.00 88.01 C 36.78 90.76 38.56 92.96 39.82 95.21 C 40.18 97.46 39.97 99.74 40.01 102.01 C 39.98 132.00 40.01 162.00 40.00 192.00 C 32.63 191.97 25.26 192.06 17.89 191.97 C 12.29 192.02 7.54 186.59 7.99 181.07 C 8.00 127.02 8.01 72.98 7.99 18.93 Z" />
<path fill="#000000" d=" M 45.00 8.00 C 54.00 8.00 63.00 8.00 72.00 8.00 C 72.00 69.33 72.00 130.67 72.00 192.00 C 63.00 192.00 54.00 192.00 45.00 192.00 C 45.00 160.66 45.00 129.33 45.00 98.00 C 49.17 97.76 53.50 98.63 57.55 97.37 C 61.13 95.78 64.12 92.18 64.00 88.10 C 64.00 76.37 64.00 64.63 64.00 52.90 C 64.08 48.23 60.22 44.04 55.75 43.13 C 52.18 42.82 48.58 43.06 45.00 43.00 C 45.00 31.34 45.00 19.67 45.00 8.00 Z" />
<path fill="#000000" d=" M 77.00 8.00 C 86.00 8.00 95.00 8.00 104.00 8.00 C 104.00 69.33 104.00 130.67 104.00 192.00 C 95.00 192.00 86.00 192.00 77.00 192.00 C 77.00 130.67 77.00 69.33 77.00 8.00 Z" />
<path fill="#000000" d=" M 108.00 8.00 C 117.33 8.00 126.67 8.00 136.00 8.00 C 135.98 26.56 136.05 45.12 135.96 63.67 C 132.81 65.76 129.80 68.93 130.00 72.99 C 130.00 103.33 130.00 133.67 130.00 164.01 C 129.79 168.08 132.81 171.23 135.96 173.33 C 136.04 179.55 135.99 185.77 136.00 192.00 C 126.67 192.00 117.33 192.00 108.00 192.00 C 108.00 130.67 108.00 69.33 108.00 8.00 Z" />
<path fill="#000000" d=" M 140.00 8.00 C 149.33 8.00 158.67 8.00 168.00 8.00 C 168.00 69.33 168.00 130.67 168.00 192.00 C 158.67 192.00 149.33 192.00 140.00 192.00 C 140.00 186.00 140.00 180.00 140.00 174.00 C 144.70 173.97 149.40 174.04 154.10 174.00 C 159.28 174.07 164.07 169.29 164.00 164.10 C 164.00 133.70 164.00 103.30 164.00 72.89 C 164.06 67.67 159.21 62.93 154.01 63.00 C 149.34 62.96 144.67 63.03 140.00 63.00 C 140.00 44.67 140.00 26.33 140.00 8.00 Z" />
<path fill="#000000" d=" M 173.00 8.01 C 178.27 8.45 184.33 6.61 188.89 10.08 C 191.65 12.09 193.24 15.50 193.00 18.91 C 193.00 72.97 193.00 127.03 193.00 181.09 C 193.51 186.62 188.70 192.02 183.11 191.97 C 179.74 192.08 176.37 191.97 173.00 191.99 C 173.00 130.66 173.00 69.34 173.00 8.01 Z" />
</svg>
